<?xml version="1.0" standalone="no"?><!DOCTYPE svg PUBLIC "-//W3C//DTD SVG 1.1//EN" "http://www.w3.org/Graphics/SVG/1.1/DTD/svg11.dtd"><svg t="1742994879180" class="icon" viewBox="0 0 1024 1024" version="1.1" xmlns="http://www.w3.org/2000/svg" p-id="2882" xmlns:xlink="http://www.w3.org/1999/xlink" width="200" height="200"><path d="M590.037333 685.738667H433.92a41.898667 41.898667 0 0 0-41.301333 34.816l-26.026667 151.509333a41.898667 41.898667 0 0 0 41.344 49.024h208.042667a41.898667 41.898667 0 0 0 41.301333-49.024l-26.026667-151.466667a41.898667 41.898667 0 0 0-41.258666-34.858666zM554.666667 769.536l11.648 67.712h-108.672l11.648-67.712H554.666667z" fill="#1890FF" fill-opacity=".282" p-id="2883"></path><path d="M694.058667 837.248a41.898667 41.898667 0 0 1 4.864 83.541333l-4.864 0.298667H329.941333a41.898667 41.898667 0 0 1-4.864-83.541333l4.864-0.298667h364.117334z" fill="#1890FF" fill-opacity=".282" p-id="2884"></path><path d="M800.341333 85.333333H223.658667C147.285333 85.333333 85.333333 146.773333 85.333333 222.634667v404.053333c0 75.776 61.952 137.258667 138.325334 137.258667h576.682666c76.373333 0 138.325333-61.44 138.325334-137.301334V222.634667C938.666667 146.816 876.714667 85.333333 800.341333 85.333333z" fill="#1890FF" p-id="2885"></path><path d="M756.608 311.082667c18.645333 0 34.048 13.952 36.266667 32l0.298666 4.565333v75.776a36.565333 36.565333 0 0 1-72.832 4.565333l-0.298666-4.565333V347.648c0-20.181333 16.384-36.565333 36.565333-36.565333z" fill="#EDF5FF" fill-opacity=".6" p-id="2886"></path><path d="M507.989333 213.333333a36.821333 36.821333 0 0 1 29.141334 0l234.069333 101.034667a36.181333 36.181333 0 0 1 0 66.56l-82.048 35.413333v108.074667a36.565333 36.565333 0 0 1-12.202667 27.306667 237.653333 237.653333 0 0 1-154.88 59.733333 239.061333 239.061333 0 0 1-153.770666-59.648 36.565333 36.565333 0 0 1-11.946667-22.186667l-0.426667-5.205333V416.341333l-82.005333-35.413333a36.181333 36.181333 0 0 1-4.608-64.170667l4.608-2.389333z m108.032 234.538667l-78.890666 34.090667a36.821333 36.821333 0 0 1-29.141334 0l-78.933333-34.090667v58.922667l2.986667 2.218666a165.546667 165.546667 0 0 0 80.554666 28.885334l9.557334 0.426666a164.48 164.48 0 0 0 90.922666-29.226666l2.944-2.133334v-59.093333z" fill="#EDF5FF" p-id="2887"></path></svg>